<svg width="1126" height="1280" xmlns="http://www.w3.org/2000/svg" xmlns:xlink="http://www.w3.org/1999/xlink" xml:space="preserve" overflow="hidden"><defs><clipPath id="clip0"><rect x="1105" y="347" width="1126" height="1280"/></clipPath></defs><g clip-path="url(#clip0)" transform="translate(-1105 -347)"><path d="M1293.68 379.147C1299.57 378.737 1305.73 379.237 1311.57 380.027 1320.32 381.222 1328.2 382.549 1333.84 383.399 1369.24 389.23 1983.14 489.232 2010.42 493.776 2037.69 498.32 2083.52 504.828 2102.74 561.89 2106.49 573.023 2189.8 822.367 2193.13 833.149 2196.46 843.944 2220.71 900.884 2152.28 922.122 2142.11 925.287 1564.94 1105.49 1550.94 1109.71 1536.94 1113.91 1482.4 1136.76 1459.97 1057.94 1459.97 1057.94 1283.75 499.124 1275.62 473.911 1269.03 453.426 1264.26 437.008 1263.29 424.232 1260.68 389.811 1276 380.379 1293.68 379.147Z" fill="#DCEAF7" fill-rule="evenodd"/><path d="M2020 746.685C2020 746.685 2041.1 745.863 2047.08 745.484 2053.07 745.098 2064.33 744.523 2071.17 757.732 2072.93 761.153 2083.6 793.906 2084.94 797.765 2086.28 801.623 2089.38 819.374 2075.41 822.462 2072.84 823.037 2048.04 827.873 2048.04 827.873L2020 746.685ZM1972.31 596.15C1972.31 596.15 1999.66 598.151 2006.41 598.732 2013.16 599.313 2017.87 602.401 2020.58 608.277 2022.27 611.969 2032.52 642.06 2033.69 645.343 2034.84 648.627 2040.06 666.677 2024.93 667.062 2022.61 667.125 1995.44 667.062 1995.44 667.062L1972.31 596.15ZM1876 510C1876 510 1990.83 526.532 2001.53 528.24 2049.39 535.893 2070.15 574.564 2076.05 592.665 2077.99 598.646 2091.29 640.628 2093 645.263 2106.04 680.69 2072.99 699.01 2072.99 699.01 2072.99 699.01 2110.75 705.882 2123.57 736.318 2123.57 736.318 2147.5 806.436 2149.87 813.578 2152.23 820.708 2169.28 876.652 2111.05 897.227 2103.31 899.958 2009.56 925 2009.56 925L1876 510Z" fill="#002060" fill-rule="evenodd"/><path d="M1411 441 1599.42 469.298 1629.85 571.882 1585.89 568.101C1585.89 568.101 1694.18 915.174 1697.92 925.949 1711.5 965.035 1719.77 1005.56 1660.5 1025.06 1652.74 1027.62 1597.57 1043.55 1590.83 1045.13 1556.61 1053.11 1513.08 1053.3 1496.21 1000.01L1427.31 785.401 1511.95 779.51C1511.95 779.51 1546.93 889.657 1549.66 897.829 1557.38 920.863 1562.13 929.651 1586.22 924.082 1603.91 919.984 1603.16 912.904 1598.54 897.668 1596.58 891.215 1494.65 560.911 1494.65 560.911L1446.49 557.319 1411 441ZM1692.02 481.861C1700.24 483.2 1760.83 492.763 1771.08 494.436 1781.31 496.114 1837.7 505.338 1852.64 557.331 1856.32 570.118 1886.07 661.478 1886.07 661.478L1814.54 660.823C1814.54 660.823 1801.22 616.617 1798.38 608.997 1791.46 590.382 1791.06 585.543 1769.55 582.365 1747.83 579.859 1748.96 588.951 1753.8 604.272 1756.3 612.175 1821.39 827.733 1824.29 836.969 1831.95 861.462 1833.86 871.215 1856.82 866.738 1876.71 862.146 1872.93 851.486 1867.83 833.446 1866.09 827.331 1845.68 762.815 1845.68 762.815L1916.74 757.516C1916.74 757.516 1952.94 871.979 1954.86 877.33 1956.78 882.68 1971.93 929.064 1928.91 949.012 1923.35 951.581 1923.36 951.978 1917.66 953.874 1911.97 955.771 1854.39 971.925 1848.9 973.402 1843.42 974.874 1788.6 991.701 1770.78 937.639 1769.06 932.432 1653.16 552.59 1647.01 534.027 1636.56 502.51 1647.68 475.516 1692.02 481.861Z" fill="#002060" fill-rule="evenodd"/><path d="M1334.96 380.43C1370.37 386.264 1984.52 486.32 2011.82 490.866 2039.1 495.413 2084.95 501.925 2104.18 559.017 2107.93 570.156 2191.27 819.635 2194.61 830.424 2197.93 841.224 2222.2 898.195 2153.74 919.445 2143.56 922.612 1566.16 1102.91 1552.15 1107.13 1538.14 1111.34 1483.59 1134.2 1461.14 1055.33 1461.14 1055.33 1284.85 496.217 1276.72 470.991 1270.12 450.494 1265.35 434.067 1264.38 421.284 1260.9 375.366 1289.3 373.894 1312.68 377.056 1321.43 378.251 1329.32 379.579 1334.96 380.43ZM1318.92 349.271C1334.48 351.593 2005.06 462.329 2022.14 465.099 2039.4 467.898 2105.4 474.997 2131.8 550.384 2136.88 564.874 2220.33 816.026 2224.31 828.556 2239.05 874.986 2232.72 923.497 2171.61 943.89 2151.43 950.626 1576 1133.48 1568.94 1135.74 1553.13 1140.81 1468.6 1178.3 1437.84 1080.54 1437.84 1080.54 1251.56 494.378 1246.02 476.646 1237.43 449.178 1232.01 425.865 1232 408.691 1231.94 332.499 1303.95 347.679 1318.92 349.271Z" fill="#002060" fill-rule="evenodd"/><path d="M2164 955 1117 1627 1481.3 1147.07 1488.18 1151C1521.83 1163.42 1558.54 1147.61 1568.42 1144.44 1575.03 1142.33 2080.97 981.648 2160.81 956.026L2164 955Z" fill="#002B82" fill-rule="evenodd"/><path d="M1226.09 421 1228.84 442.786C1231.27 454.197 1234.77 466.895 1239.06 480.633 1244.6 498.368 1430.86 1084.66 1430.86 1084.66 1438.55 1109.11 1449.6 1125.1 1462.1 1135.25L1474 1142.05 1105 1626 1226.09 421Z" fill="#00153E" fill-rule="evenodd"/></g></svg>
