<svg width="2159" height="2159" xmlns="http://www.w3.org/2000/svg" xmlns:xlink="http://www.w3.org/1999/xlink" xml:space="preserve" overflow="hidden"><g transform="translate(-1290 -113)"><path d="M2526.6 150.123C2531.52 149.78 2536.66 150.198 2541.53 150.858 2548.84 151.857 2555.41 152.966 2560.12 153.677 2589.67 158.55 3102.01 242.134 3124.78 245.932 3147.54 249.73 3185.79 255.17 3201.83 302.863 3204.96 312.168 3274.49 520.575 3277.27 529.587 3280.04 538.609 3300.29 586.201 3243.18 603.952 3234.68 606.598 2752.99 757.215 2741.31 760.739 2729.62 764.254 2684.11 783.349 2665.39 717.468 2665.39 717.468 2518.32 250.402 2511.54 229.328 2506.03 212.206 2502.05 198.484 2501.24 187.805 2499.06 159.036 2511.85 151.153 2526.6 150.123Z" fill="#DCEAF7" fill-rule="evenodd"/><path d="M3133.18 457.333C3133.18 457.333 3150.78 456.647 3155.77 456.331 3160.77 456.01 3170.17 455.53 3175.88 466.542 3177.35 469.395 3186.25 496.702 3187.37 499.919 3188.49 503.136 3191.07 517.936 3179.41 520.51 3177.27 520.99 3156.57 525.022 3156.57 525.022L3133.18 457.333ZM3093.37 331.826C3093.37 331.826 3116.2 333.495 3121.83 333.979 3127.47 334.463 3131.4 337.037 3133.65 341.937 3135.07 345.015 3143.62 370.103 3144.6 372.84 3145.56 375.578 3149.91 390.627 3137.29 390.948 3135.35 391.001 3112.68 390.948 3112.68 390.948L3093.37 331.826ZM3013 260C3013 260 3108.83 273.783 3117.76 275.207 3157.7 281.588 3175.02 313.829 3179.95 328.921 3181.57 333.907 3192.67 368.909 3194.09 372.773 3204.98 402.31 3177.4 417.584 3177.4 417.584 3177.4 417.584 3208.91 423.313 3219.6 448.689 3219.6 448.689 3239.58 507.149 3241.55 513.103 3243.53 519.048 3257.75 565.691 3209.15 582.844 3202.69 585.121 3124.46 606 3124.46 606L3013 260Z" fill="#002060" fill-rule="evenodd"/><path d="M2625 202 2782.13 225.598 2807.51 311.14 2770.85 307.987C2770.85 307.987 2861.15 597.405 2864.28 606.39 2875.6 638.983 2882.49 672.774 2833.07 689.039 2826.6 691.171 2780.59 704.456 2774.96 705.774 2746.43 712.43 2710.12 712.588 2696.06 668.144L2638.6 489.19 2709.19 484.277C2709.19 484.277 2738.36 576.127 2740.64 582.942 2747.07 602.149 2751.03 609.477 2771.12 604.833 2785.87 601.416 2785.25 595.512 2781.39 582.807 2779.76 577.426 2694.76 301.992 2694.76 301.992L2654.59 298.997 2625 202ZM2859.35 236.073C2866.21 237.19 2916.74 245.165 2925.28 246.559 2933.81 247.958 2980.84 255.65 2993.3 299.006 2996.37 309.669 3021.18 385.853 3021.18 385.853L2961.53 385.306C2961.53 385.306 2950.42 348.444 2948.05 342.089 2942.28 326.567 2941.95 322.532 2924.01 319.882 2905.9 317.792 2906.84 325.374 2910.88 338.15 2912.96 344.739 2967.24 524.49 2969.66 532.191 2976.05 552.616 2977.64 560.748 2996.78 557.015 3013.37 553.186 3010.23 544.296 3005.97 529.253 3004.52 524.154 2987.5 470.356 2987.5 470.356L3046.76 465.937C3046.76 465.937 3076.95 561.386 3078.55 565.847 3080.15 570.309 3092.78 608.988 3056.91 625.622 3052.27 627.764 3052.28 628.095 3047.52 629.676 3042.78 631.258 2994.77 644.729 2990.19 645.961 2985.62 647.188 2939.9 661.219 2925.03 616.138 2923.6 611.796 2826.95 295.053 2821.82 279.573 2813.11 253.292 2822.38 230.783 2859.35 236.073Z" fill="#002060" fill-rule="evenodd"/><path d="M2561.85 151.914C2591.38 156.785 3103.48 240.332 3126.24 244.128 3148.99 247.925 3187.22 253.362 3203.25 301.034 3206.38 310.335 3275.87 518.651 3278.65 527.659 3281.43 536.677 3301.66 584.248 3244.58 601.991 3236.09 604.636 2754.63 755.186 2742.95 758.709 2731.27 762.222 2685.78 781.309 2667.07 715.457 2667.07 715.457 2520.07 248.597 2513.29 227.532 2507.79 210.418 2503.81 196.701 2503 186.028 2500.1 147.686 2523.78 146.457 2543.27 149.097 2550.57 150.095 2557.15 151.204 2561.85 151.914ZM2548.48 125.897C2561.46 127.836 3120.6 220.3 3134.84 222.613 3149.23 224.95 3204.27 230.877 3226.29 293.826 3230.52 305.925 3300.11 515.637 3303.42 526.099 3315.71 564.868 3310.44 605.375 3259.48 622.403 3242.65 628.028 2762.84 780.714 2756.96 782.6 2743.77 786.828 2673.29 818.134 2647.63 736.502 2647.63 736.502 2492.31 247.061 2487.69 232.255 2480.53 209.319 2476.01 189.853 2476 175.512 2475.95 111.892 2536 124.567 2548.48 125.897Z" fill="#002060" fill-rule="evenodd"/><path d="M3253 631 2379 1192 2683.1 791.343 2688.85 794.622C2716.94 804.996 2747.58 791.792 2755.83 789.153 2761.35 787.387 3183.69 653.246 3250.34 631.857L3253 631Z" fill="#002B82" fill-rule="evenodd"/><path d="M2471.08 186 2473.37 204.17C2475.39 213.687 2478.32 224.278 2481.9 235.735 2486.53 250.527 2641.99 739.51 2641.99 739.51 2648.41 759.898 2657.63 773.235 2668.06 781.706L2678 787.375 2370 1191 2471.08 186Z" fill="#00153E" fill-rule="evenodd"/></g></svg>
