<svg width="1723" height="1724" xmlns="http://www.w3.org/2000/svg" xmlns:xlink="http://www.w3.org/1999/xlink" xml:space="preserve" overflow="hidden"><defs><clipPath id="clip0"><rect x="92" y="435" width="1723" height="1724"/></clipPath></defs><g clip-path="url(#clip0)" transform="translate(-92 -435)"><path d="M1080.63 456.099C1084.59 455.823 1088.73 456.16 1092.66 456.693 1098.54 457.498 1103.84 458.393 1107.63 458.967 1131.43 462.899 1544.19 530.335 1562.53 533.4 1580.87 536.464 1611.68 540.853 1624.61 579.333 1627.13 586.84 1683.14 754.987 1685.38 762.258 1687.62 769.537 1703.93 807.935 1657.92 822.257 1651.07 824.392 1263.01 945.912 1253.6 948.755 1244.19 951.591 1207.52 966.998 1192.43 913.844 1192.43 913.844 1073.95 537.006 1068.49 520.004 1064.05 506.19 1060.85 495.118 1060.2 486.502 1058.44 463.291 1068.74 456.93 1080.63 456.099Z" fill="#DCEAF7" fill-rule="evenodd"/><path d="M1569.38 704.121C1569.38 704.121 1583.65 703.568 1587.69 703.313 1591.74 703.054 1599.36 702.667 1603.99 711.547 1605.18 713.847 1612.39 735.867 1613.3 738.461 1614.21 741.055 1616.3 752.989 1606.85 755.065 1605.12 755.451 1588.34 758.702 1588.34 758.702L1569.38 704.121ZM1537.13 602.918C1537.13 602.918 1555.62 604.263 1560.19 604.653 1564.76 605.044 1567.94 607.12 1569.77 611.071 1570.92 613.552 1577.85 633.782 1578.64 635.99 1579.42 638.197 1582.94 650.332 1572.72 650.591 1571.15 650.633 1552.77 650.591 1552.77 650.591L1537.13 602.918ZM1472 545C1472 545 1549.66 556.114 1556.89 557.262 1589.26 562.408 1603.29 588.405 1607.29 600.575 1608.6 604.595 1617.59 632.82 1618.75 635.936 1627.57 659.753 1605.22 672.069 1605.22 672.069 1605.22 672.069 1630.75 676.689 1639.42 697.151 1639.42 697.151 1655.61 744.291 1657.21 749.092 1658.81 753.886 1670.34 791.496 1630.95 805.328 1625.72 807.164 1562.32 824 1562.32 824L1472 545Z" fill="#002060" fill-rule="evenodd"/><path d="M1159 498 1285.87 517.083 1306.36 586.259 1276.77 583.709C1276.77 583.709 1349.68 817.755 1352.2 825.022 1361.35 851.379 1366.91 878.704 1327.01 891.858 1321.78 893.582 1284.63 904.325 1280.09 905.391 1257.05 910.774 1227.73 910.901 1216.38 874.961L1169.98 730.244 1226.98 726.271C1226.98 726.271 1250.53 800.548 1252.37 806.059 1257.56 821.592 1260.77 827.517 1276.99 823.762 1288.9 820.999 1288.39 816.224 1285.28 805.951 1283.96 801.599 1215.33 578.861 1215.33 578.861L1182.89 576.439 1159 498ZM1348.22 525.554C1353.76 526.458 1394.56 532.906 1401.46 534.034 1408.35 535.166 1446.32 541.386 1456.38 576.447 1458.86 585.07 1478.89 646.678 1478.89 646.678L1430.73 646.236C1430.73 646.236 1421.75 616.426 1419.85 611.287 1415.19 598.734 1414.92 595.471 1400.43 593.328 1385.81 591.639 1386.57 597.77 1389.83 608.101 1391.51 613.43 1435.34 758.79 1437.29 765.018 1442.45 781.535 1443.74 788.112 1459.19 785.093 1472.59 781.997 1470.05 774.808 1466.61 762.643 1465.44 758.519 1451.7 715.013 1451.7 715.013L1499.54 711.44C1499.54 711.44 1523.92 788.627 1525.21 792.235 1526.51 795.843 1536.71 827.122 1507.74 840.574 1504 842.306 1504 842.573 1500.16 843.852 1496.33 845.131 1457.56 856.025 1453.87 857.021 1450.18 858.013 1413.26 869.361 1401.26 832.904 1400.1 829.393 1322.06 573.25 1317.92 560.732 1310.89 539.479 1318.37 521.276 1348.22 525.554Z" fill="#002060" fill-rule="evenodd"/><path d="M1108.26 457.523C1132.08 461.454 1545.2 528.867 1563.56 531.93 1581.92 534.993 1612.76 539.38 1625.69 577.846 1628.21 585.351 1684.28 753.438 1686.52 760.707 1688.75 767.983 1705.08 806.368 1659.03 820.684 1652.18 822.818 1263.78 944.295 1254.35 947.138 1244.93 949.972 1208.24 965.373 1193.14 912.239 1193.14 912.239 1074.55 535.535 1069.08 518.539 1064.64 504.729 1061.44 493.661 1060.78 485.049 1058.44 454.111 1077.55 453.12 1093.27 455.25 1099.16 456.055 1104.46 456.95 1108.26 457.523ZM1097.47 436.53C1107.94 438.095 1559.01 512.703 1570.5 514.569 1582.11 516.455 1626.51 521.238 1644.27 572.03 1647.69 581.792 1703.82 751.006 1706.5 759.448 1716.42 790.73 1712.16 823.414 1671.05 837.154 1657.47 841.693 1270.4 964.893 1265.65 966.415 1255.02 969.827 1198.16 995.087 1177.46 929.22 1177.46 929.22 1052.16 534.296 1048.43 522.349 1042.65 503.842 1039.01 488.135 1039 476.564 1038.96 425.23 1087.4 435.457 1097.47 436.53Z" fill="#002060" fill-rule="evenodd"/><path d="M1666 844 961 1297 1206.3 973.475 1210.94 976.122C1233.59 984.499 1258.31 973.837 1264.97 971.706 1269.42 970.28 1610.1 861.964 1663.85 844.692L1666 844Z" fill="#002B82" fill-rule="evenodd"/><path d="M1034.71 485 1036.56 499.663C1038.2 507.343 1040.57 515.889 1043.47 525.135 1047.2 537.071 1172.89 931.663 1172.89 931.663 1178.08 948.116 1185.53 958.878 1193.97 965.714L1202 970.289 953 1296 1034.71 485Z" fill="#00153E" fill-rule="evenodd"/></g></svg>
