<svg width="1724" height="1723" xmlns="http://www.w3.org/2000/svg" xmlns:xlink="http://www.w3.org/1999/xlink" xml:space="preserve" overflow="hidden"><defs><clipPath id="clip0"><rect x="2115" y="435" width="1724" height="1723"/></clipPath></defs><g clip-path="url(#clip0)" transform="translate(-2115 -435)"><path d="M3103.66 456.099C3107.63 455.823 3111.77 456.16 3115.71 456.691 3121.6 457.495 3126.91 458.388 3130.7 458.961 3154.54 462.885 3567.96 530.186 3586.33 533.244 3604.7 536.302 3635.56 540.682 3648.5 579.084 3651.03 586.577 3707.13 754.385 3709.38 761.642 3711.61 768.906 3727.95 807.227 3681.87 821.52 3675.01 823.65 3286.33 944.926 3276.9 947.764 3267.48 950.594 3230.75 965.969 3215.65 912.922 3215.65 912.922 3096.97 536.843 3091.5 519.875 3087.06 506.089 3083.85 495.039 3083.2 486.441 3081.44 463.276 3091.75 456.928 3103.66 456.099Z" fill="#FBE3D6" fill-rule="evenodd"/><path d="M3592.87 703.691C3592.87 703.691 3607.06 703.137 3611.08 702.88 3615.11 702.621 3622.68 702.233 3627.28 711.144 3628.47 713.453 3635.64 735.551 3636.55 738.154 3637.45 740.758 3639.53 752.734 3630.13 754.818 3628.41 755.206 3611.72 758.469 3611.72 758.469L3592.87 703.691ZM3560.78 602.125C3560.78 602.125 3579.18 603.476 3583.72 603.867 3588.26 604.259 3591.43 606.343 3593.25 610.308 3594.39 612.798 3601.29 633.101 3602.07 635.316 3602.85 637.531 3606.35 649.71 3596.18 649.97 3594.62 650.012 3576.34 649.97 3576.34 649.97L3560.78 602.125ZM3496 544C3496 544 3573.24 555.154 3580.44 556.307 3612.63 561.47 3626.6 587.561 3630.57 599.774 3631.87 603.809 3640.82 632.135 3641.97 635.262 3650.74 659.164 3628.51 671.525 3628.51 671.525 3628.51 671.525 3653.91 676.161 3662.53 696.696 3662.53 696.696 3678.63 744.005 3680.22 748.824 3681.81 753.634 3693.28 791.38 3654.11 805.261 3648.9 807.104 3585.84 824 3585.84 824L3496 544Z" fill="#C04F15" fill-rule="evenodd"/><path d="M3183 497 3309.87 516.083 3330.36 585.259 3300.77 582.709C3300.77 582.709 3373.68 816.755 3376.2 824.022 3385.35 850.379 3390.91 877.705 3351.01 890.858 3345.78 892.582 3308.63 903.325 3304.09 904.391 3281.05 909.774 3251.73 909.902 3240.38 873.961L3193.98 729.244 3250.98 725.272C3250.98 725.272 3274.53 799.548 3276.37 805.059 3281.56 820.592 3284.77 826.518 3300.99 822.762 3312.9 819.999 3312.39 815.225 3309.28 804.951 3307.96 800.599 3239.33 577.861 3239.33 577.861L3206.89 575.439 3183 497ZM3372.22 524.554C3377.76 525.458 3418.56 531.906 3425.46 533.034 3432.35 534.166 3470.32 540.386 3480.38 575.447 3482.86 584.07 3502.89 645.678 3502.89 645.678L3454.73 645.236C3454.73 645.236 3445.75 615.426 3443.85 610.287 3439.19 597.735 3438.92 594.471 3424.43 592.328 3409.81 590.639 3410.57 596.77 3413.83 607.102 3415.51 612.43 3459.34 757.791 3461.29 764.018 3466.45 780.536 3467.74 787.112 3483.19 784.093 3496.59 780.997 3494.05 773.808 3490.61 761.643 3489.44 757.519 3475.7 714.014 3475.7 714.014L3523.54 710.44C3523.54 710.44 3547.92 787.628 3549.21 791.236 3550.51 794.844 3560.71 826.122 3531.74 839.574 3528 841.306 3528 841.574 3524.16 842.853 3520.33 844.132 3481.56 855.026 3477.87 856.021 3474.18 857.014 3437.26 868.361 3425.26 831.905 3424.1 828.393 3346.06 572.25 3341.92 559.732 3334.89 538.479 3342.37 520.276 3372.22 524.554Z" fill="#C04F15" fill-rule="evenodd"/><path d="M3131.36 457.481C3155.22 461.405 3568.95 528.693 3587.34 531.75 3605.72 534.807 3636.61 539.187 3649.56 577.581 3652.09 585.072 3708.24 752.847 3710.48 760.103 3712.72 767.366 3729.07 805.679 3682.95 819.969 3676.09 822.099 3287.11 943.351 3277.67 946.188 3268.24 949.017 3231.49 964.39 3216.37 911.353 3216.37 911.353 3097.6 535.349 3092.13 518.384 3087.68 504.6 3084.47 493.553 3083.82 484.956 3081.47 454.076 3100.6 453.086 3116.35 455.212 3122.25 456.016 3127.56 456.909 3131.36 457.481ZM3120.56 436.527C3131.04 438.089 3582.79 512.559 3594.29 514.422 3605.92 516.304 3650.39 521.078 3668.17 571.776 3671.59 581.52 3727.81 750.42 3730.49 758.846 3740.42 790.071 3736.16 822.694 3694.99 836.408 3681.39 840.938 3293.74 963.91 3288.99 965.43 3278.34 968.835 3221.39 994.048 3200.67 928.303 3200.67 928.303 3075.18 534.112 3071.45 522.187 3065.66 503.715 3062.01 488.037 3062 476.487 3061.96 425.248 3110.47 435.457 3120.56 436.527Z" fill="#C04F15" fill-rule="evenodd"/><path d="M3690 843 2985 1296 3230.3 972.475 3234.94 975.122C3257.59 983.499 3282.31 972.837 3288.97 970.706 3293.42 969.28 3634.1 860.964 3687.85 843.692L3690 843Z" fill="#EA773E" fill-rule="evenodd"/><path d="M3058.39 484 3060.23 498.663C3061.86 506.343 3064.22 514.889 3067.1 524.134 3070.83 536.071 3196 930.663 3196 930.663 3201.17 947.116 3208.6 957.878 3217 964.714L3225 969.289 2977 1295 3058.39 484Z" fill="#8F3A0F" fill-rule="evenodd"/></g></svg>
